<svg width="25" height="29" viewBox="0 0 25 29" fill="none" xmlns="http://www.w3.org/2000/svg">
<path d="M12.3378 2.6875C6.58777 2.6875 4.6711 7.75 4.6711 12.8125C4.6711 15.7256 1.81521 18.6387 1.03351 22.637C0.82157 23.721 1.7332 24.625 2.83777 24.625H8.50444M12.3378 2.6875C18.0878 2.6875 20.0044 7.75 20.0044 12.8125C20.0044 15.7256 22.8603 18.6387 23.642 22.637C23.854 23.721 22.9423 24.625 21.8378 24.625H16.1711M12.3378 2.6875V3.53125V4.375M12.3378 2.6875V1M12.3378 2.6875H14.2544M12.3378 2.6875H10.4211M8.50444 24.625H16.1711M8.50444 24.625C8.50444 28 8.50444 28 12.3378 28C16.1711 28 16.1711 28 16.1711 24.625M14.2544 2.6875L12.3378 1L10.4211 2.6875L12.3378 4.375L14.2544 2.6875Z" stroke="black" stroke-width="2" stroke-linejoin="round"/>
</svg>
