<svg width="600" height="600" viewBox="0 0 600 600" fill="none" xmlns="http://www.w3.org/2000/svg">
<path fill-rule="evenodd" clip-rule="evenodd" d="M87.624 465.017C76.1935 465.017 66.7835 461.951 60.2441 455.412C53.7049 448.873 50.6396 439.463 50.6396 428.032V171.239C50.6398 159.809 53.7048 150.399 60.2441 143.859C66.7835 137.321 76.1937 134.256 87.624 134.256H512.019C523.449 134.256 532.86 137.321 539.399 143.859C545.939 150.399 549.004 159.809 549.004 171.239V428.032C549.004 439.463 545.939 448.873 539.399 455.412C532.86 461.951 523.449 465.017 512.019 465.017H87.624ZM512.019 457.016C522.08 457.016 529.162 454.335 533.742 449.755C538.322 445.175 541.004 438.094 541.004 428.032V171.239C541.004 161.178 538.322 154.096 533.742 149.517C529.162 144.937 522.08 142.256 512.019 142.256H87.624C77.5629 142.256 70.4802 144.937 65.9004 149.517C61.3208 154.096 58.6398 161.179 58.6396 171.239V428.032C58.6396 438.093 61.321 445.175 65.9004 449.755C70.4802 454.335 77.5628 457.016 87.624 457.016H512.019Z" fill="#5E5E5E"/>
<path d="M88.8042 461.833H513.199C534.691 461.833 546.184 450.342 546.184 428.849V172.057C546.184 150.564 534.691 139.073 513.199 139.073H88.8042C67.312 139.073 55.8195 150.564 55.8195 172.057V428.849C55.8195 450.342 67.312 461.833 88.8042 461.833Z" fill="#D3D3D3"/>
<path d="M88.8031 450.114C73.6988 450.114 67.5382 443.953 67.5382 428.848V172.058C67.5382 156.953 73.6988 150.792 88.8031 150.792H513.2C528.304 150.792 534.465 156.953 534.465 172.058V428.848C534.465 443.953 528.304 450.114 513.2 450.114H88.8031Z" fill="url(#paint0_radial_2652_3119)"/>
<path d="M540.554 187.816V428.07C540.554 446.846 531.032 456.367 512.257 456.367H87.862C69.0862 456.367 59.5647 446.846 59.5647 428.07V187.816H50.1897V428.07C50.1897 452.012 63.9205 465.742 87.862 465.742H512.257C536.198 465.742 549.929 452.012 549.929 428.07V187.816H540.554Z" fill="#909090"/>
<path d="M512.256 133.607H87.8617C63.9203 133.607 50.1895 147.337 50.1895 171.279L50.1897 187.816H59.5647L59.5645 171.279C59.5645 152.503 69.0859 142.982 87.8617 142.982H512.256C531.032 142.982 540.554 152.503 540.554 171.279L540.554 187.816H549.929L549.929 171.279C549.929 147.337 536.198 133.607 512.256 133.607Z" fill="#4C4C4C"/>
<path d="M512.256 138.295H87.8617C66.3695 138.295 54.877 149.787 54.877 171.279V187.816H545.241V171.279C545.241 149.787 533.748 138.295 512.256 138.295Z" fill="url(#paint1_radial_2652_3119)"/>
<path d="M534.465 187.816V172.057C534.465 156.952 528.304 150.792 513.2 150.792H88.8029C73.6986 150.792 67.5381 156.952 67.5381 172.057V187.816H534.465Z" fill="url(#paint2_radial_2652_3119)"/>
<path d="M512.256 133.607H87.8617C63.9203 133.607 50.1895 147.337 50.1895 171.279L50.1897 187.816H59.5647L59.5645 171.279C59.5645 152.503 69.0859 142.982 87.8617 142.982H512.256C531.032 142.982 540.554 152.503 540.554 171.279L540.554 187.816H549.929L549.929 171.279C549.929 147.337 536.198 133.607 512.256 133.607Z" fill="#4C4C4C"/>
<path d="M277.714 275.41H280.021V273.295H281.542V271.357H280.021V263.851H276.6L271.97 271.269V273.295H277.714V275.41ZM274.076 271.421V271.357L277.705 265.605H277.762V271.421H274.076Z" fill="black"/>
<path d="M284.834 264.376C281.411 266.721 281.706 275.609 287.358 275.609C292.103 275.609 292.856 269.63 291.499 266.437C290.192 263.36 286.788 263.034 284.834 264.376ZM287.358 273.671C284.276 273.671 284.276 265.589 287.358 265.589C290.5 265.589 290.367 273.671 287.358 273.671Z" fill="black"/>
<path d="M300.055 269.337V269.289C303.598 268.384 302.966 263.65 298.061 263.65C293.143 263.65 292.498 268.378 296.065 269.289V269.337C292.083 270.076 292.374 275.611 298.061 275.611C303.77 275.611 304 270.069 300.055 269.337ZM298.061 265.396C300.105 265.396 300.507 267.638 299.022 268.353C296.237 269.694 294.829 265.396 298.061 265.396ZM298.061 273.848C295.17 273.848 295.189 270.315 298.061 270.315C299.689 270.315 300.208 272.094 300.208 272.094C300.208 273.02 299.433 273.848 298.061 273.848Z" fill="black"/>
<path d="M304.405 271.734H309.597V269.69H304.405V271.734Z" fill="black"/>
<path d="M310.958 265.925V268.072L313.906 266.069H313.954V275.41H316.358V263.851H313.946L310.958 265.925Z" fill="black"/>
<path d="M318.946 273.752V275.41H327.35V273.487H322.11V273.385C325.435 270.355 327.189 269.084 327.189 267.015C327.189 262.511 318.809 262.365 318.809 267.423H321.053C321.344 264.804 324.826 265.041 324.826 267.175C324.826 268.511 323.951 269.071 318.946 273.752Z" fill="black"/>
<path d="M337.635 272.149C337.635 270.492 336.448 269.564 334.799 269.41V269.362C337.298 268.858 337.711 266.45 336.706 265.092C334.996 262.783 329.2 262.999 328.887 267.07H331.114C331.319 265.02 334.919 264.924 334.919 267.03C334.919 268.748 332.882 268.6 331.635 268.6V270.331C333.372 270.331 335.175 270.247 335.175 272.053C335.175 272.368 335.092 272.647 334.922 272.889C334.104 274.084 331.287 274.006 330.946 272.134H328.63C328.998 276.916 337.635 276.699 337.635 272.149Z" fill="black"/>
<path d="M344.571 269.69H339.38V271.734H344.571V269.69Z" fill="black"/>
<path d="M354.217 275.41V273.295H355.738V271.357H354.217V263.851H350.797L346.167 271.269V273.295H351.91V275.41H354.217ZM348.272 271.421V271.357L351.902 265.605H351.958V271.421H348.272Z" fill="black"/>
<path d="M365.24 265.773V263.851H357.862L357.333 270.643H359.439C360.368 268.866 363.621 269.173 363.621 271.597C363.621 274.094 360.065 274.534 359.368 272.094H357.133C357.453 276.894 365.936 276.895 365.936 271.549C365.936 267.54 360.971 266.729 359.552 269.033H359.504L359.784 265.773H365.24Z" fill="black"/>
<path d="M373.86 266.806H376.247C375.522 263.544 371.546 262.927 369.378 264.376C365.806 266.761 366.163 275.611 371.945 275.611C374.445 275.611 376.4 274.009 376.4 271.549C376.4 267.242 370.766 266.667 369.477 269.657H369.431C369.434 268.902 369.529 268.088 369.767 267.371C370.531 265.068 372.952 264.99 373.86 266.806ZM370.847 269.851C373.38 268.527 375.392 272.05 372.987 273.416C370.515 274.82 368.45 271.105 370.847 269.851Z" fill="black"/>
<path d="M385.948 263.851H377.672V265.773H383.561V265.822L378.586 275.41H381.126L385.948 265.797V263.851Z" fill="black"/>
<path d="M277.497 297.441V285.882H275.085L272.097 287.956V290.103L275.045 288.1H275.093V297.441H277.497Z" fill="black"/>
<path d="M280.084 295.782V297.44H288.488V295.518H283.248V295.416C286.152 292.769 289.795 290.191 287.806 287.304C285.952 284.599 279.947 285.211 279.947 289.454H282.191C282.453 287.107 285.024 287.18 285.74 288.344C286.55 289.655 284.377 291.767 280.084 295.782Z" fill="black"/>
<path d="M298.189 287.804V285.881H290.81L290.282 292.674H292.389C292.626 292.222 293.101 291.84 293.615 291.669C297.024 290.548 297.717 295.727 294.423 295.727C293.693 295.727 292.694 295.447 292.316 294.125H290.082C290.232 296.37 292.101 297.642 294.415 297.642C300.355 297.642 300.183 289.807 295.104 289.807C293.813 289.807 292.93 290.367 292.5 291.064H292.452L292.733 287.804H298.189Z" fill="black"/>
<path d="M309.749 294.189H309.7L306.416 285.882H303.62V297.441H305.775V289.631H305.846L308.964 297.441H310.485L313.603 289.631H313.665V297.441H315.829V285.882H313.024L309.749 294.189Z" fill="black"/>
<path d="M323.126 289.034C320.928 288.073 317.642 288.864 317.422 291.496H319.569C319.736 290.748 320.337 290.471 321.1 290.471C322.47 290.471 322.51 291.318 322.51 292.222C319.977 292.379 317.038 292.368 317.038 294.982C317.038 297.84 321.113 298.511 322.462 296.166H322.51V297.44H324.849C324.849 291.397 325.273 289.968 323.126 289.034ZM321.624 295.667C320.79 296.076 319.361 295.92 319.361 294.846C319.361 293.616 321.176 293.775 322.51 293.686C322.51 294.363 322.607 295.177 321.624 295.667Z" fill="black"/>
<path d="M326.396 297.441H328.742V288.854H326.396V297.441Z" fill="black"/>
<path d="M328.462 285.671C327.34 284.56 325.487 286.201 326.678 287.391C327.829 288.542 329.63 286.823 328.462 285.671Z" fill="black"/>
<path d="M338.275 297.44C338.275 293.278 339.249 288.677 335.311 288.677C334.046 288.677 333.152 289.256 332.692 290.262H332.644V288.853H330.305V297.44H332.644C332.644 292.29 332.562 292.109 332.855 291.521C333.134 290.966 333.652 290.615 334.359 290.615C336.605 290.615 335.936 293.264 335.936 297.44H338.275Z" fill="black"/>
<path d="M345.429 289.053C345.429 287.251 349.203 286.988 349.571 289.197H351.853C351.581 284.309 343.001 284.632 343.001 289.197C343.001 292.854 347.851 292.309 349.199 293.28C350.598 294.288 348.894 296.379 346.31 295.491C346.078 295.411 345.229 295.139 345.045 294.125H342.761C342.917 296.626 344.952 297.641 347.424 297.641C352.436 297.641 352.907 293.402 351.24 291.861C349.672 290.415 345.429 290.867 345.429 289.053Z" fill="black"/>
<path d="M357.903 297.529V295.815C355.771 296.129 356.332 294.891 356.332 290.615H357.903V288.853H356.332V286.754H353.969V288.853H352.774V290.615H353.969C353.969 295.586 353.816 296.281 354.658 297.016C355.44 297.699 356.928 297.695 357.903 297.529Z" fill="black"/>
<path d="M359.484 295.359C358.974 295.864 358.974 296.696 359.484 297.201C360.718 298.419 362.544 296.572 361.331 295.359C361.08 295.108 359.994 294.855 359.484 295.359Z" fill="black"/>
<path d="M274.462 313.673C274.462 308.818 279.385 308.63 280.181 312.014H282.544C282.029 306.862 274.777 306.284 272.658 310.48C271.471 312.836 271.646 317.251 274.57 318.951C277.596 320.716 282.189 319.362 282.553 315.371H280.189C279.56 318.515 274.462 318.782 274.462 313.673Z" fill="black"/>
<path d="M284.165 307.701C283.375 308.472 283.948 309.787 285.059 309.787C286.174 309.787 286.723 308.465 285.949 307.701C285.463 307.221 284.654 307.224 284.165 307.701Z" fill="black"/>
<path d="M283.881 319.473H286.227V310.885H283.881V319.473Z" fill="black"/>
<path d="M290.764 308.785H288.4V310.884H287.206V312.646H288.4C288.4 317.417 287.63 320.359 292.334 319.561V317.846C290.272 318.151 290.764 317.114 290.764 312.646H292.334V310.884H290.764V308.785Z" fill="black"/>
<path d="M297.369 317.596H297.303L295.49 310.884H292.917L295.946 319.471C295.702 320.183 295.465 320.795 293.775 320.457V322.195C298.814 323.152 298.759 319.456 301.65 310.884H299.174L297.369 317.596Z" fill="black"/>
<path d="M313.297 315.426H313.244L308.026 307.912H305.911V319.471H308.322V311.909H308.372L313.609 319.471H315.708V307.912H313.297V315.426Z" fill="black"/>
<path d="M323.007 311.066C320.965 310.174 317.529 310.807 317.303 313.528H319.45C319.761 312.13 322.39 312.083 322.39 313.728V314.253C320.11 314.395 316.919 314.32 316.919 317.013C316.919 319.852 320.975 320.574 322.342 318.199H322.39V319.473H324.729C324.729 313.254 325.177 312.009 323.007 311.066ZM322.155 317.137C321.412 318.25 319.243 318.163 319.243 316.877C319.243 316.154 319.901 315.877 320.62 315.835L322.39 315.717C322.39 316.395 322.435 316.712 322.155 317.137Z" fill="black"/>
<path d="M333.438 312.479H333.39C332.827 310.123 329.411 310.13 328.622 312.327H328.574V310.884H326.235V319.471H328.574C328.574 313.947 328.508 313.94 328.764 313.44C329.371 312.242 331.451 312.327 331.451 314.121V319.471H333.701C333.701 314.92 333.223 312.646 335.176 312.646C336.987 312.646 336.578 314.251 336.578 319.471H338.917C338.917 313.13 338.91 312.993 338.565 312.078C337.808 310.072 334.219 310.268 333.438 312.479Z" fill="black"/>
<path d="M346.387 311.241C345.132 310.606 343.281 310.513 342.03 311.257C338.929 313.088 339.313 319.648 344.308 319.648C346.218 319.648 347.695 318.819 348.234 316.844H346.087C345.586 318.348 342.464 318.528 342.401 315.739H348.305V315.009C348.305 313.445 347.545 311.829 346.387 311.241ZM342.435 314.257C342.746 311.824 345.752 311.821 346.046 314.257H342.435Z" fill="black"/>
<path d="M349.058 321.891H350.676L351.854 317.452H349.634L349.058 321.891Z" fill="black"/>
<path d="M358.047 313.672C358.047 308.817 362.97 308.63 363.766 312.014H366.129C365.614 306.862 358.362 306.284 356.243 310.48C355.056 312.836 355.231 317.251 358.155 318.951C361.014 320.619 365.761 319.51 366.138 315.37H363.774C363.145 318.514 358.047 318.781 358.047 313.672Z" fill="black"/>
<path d="M370.519 307.912L366.49 319.471H369.03L369.899 316.668H373.986L374.853 319.471H377.4L373.371 307.912H370.519ZM370.462 314.858L371.921 310.155H371.97L373.425 314.858H370.462Z" fill="black"/>
<path d="M386.092 307.713C381.285 307.713 380.252 313.221 383.432 315.039C385.108 315.993 387.759 315.557 388.551 313.665H388.599C388.599 318.341 385.046 318.833 384.177 316.516H381.782C382.738 320.817 390.915 321.59 390.915 313.609C390.915 309.582 388.802 307.713 386.092 307.713ZM388.239 311.718C388.239 312.74 387.576 313.266 387.189 313.473C386.567 313.804 385.683 313.829 385.024 313.469C384.408 313.133 383.993 312.511 383.993 311.686C383.993 309 388.239 308.936 388.239 311.702V311.718Z" fill="black"/>
<path d="M394.832 313.095H394.784L395.064 309.835H400.52V307.912H393.142L392.613 314.705H394.719C395.43 313.348 397.744 313.096 398.625 314.57C399.369 315.83 398.676 317.758 396.755 317.758C396.41 317.758 395.097 317.725 394.648 316.156H392.413C392.564 318.429 394.464 319.673 396.747 319.673C399.305 319.673 401.216 318.111 401.216 315.611V315.595C401.216 311.659 396.271 310.757 394.832 313.095Z" fill="black"/>
<path d="M407.129 307.712C404.498 307.712 402.411 309.631 402.411 313.68V313.695C402.411 317.005 403.919 319.672 407.129 319.672C410.372 319.672 411.84 316.95 411.84 313.695V313.68C411.84 310.433 410.376 307.712 407.129 307.712ZM409.388 313.695C409.388 315.501 408.926 317.734 407.129 317.734C405.322 317.734 404.862 315.502 404.862 313.695V313.68C404.862 311.871 405.322 309.65 407.129 309.65C408.93 309.65 409.388 311.877 409.388 313.68V313.695Z" fill="black"/>
<path d="M418.368 311.838C417.076 311.838 416.194 312.398 415.764 313.095H415.716L415.996 309.835H421.452V307.912H414.074L413.546 314.705H415.651C415.962 314.111 416.686 313.576 417.695 313.576C418.934 313.576 419.834 314.42 419.834 315.643V315.659C419.834 316.89 418.962 317.758 417.687 317.758C416.559 317.758 415.769 317.066 415.596 316.211L415.58 316.156H413.345L413.352 316.276C413.488 318.083 415.032 319.673 417.679 319.673C420.237 319.673 422.148 318.111 422.148 315.611V315.595C422.148 313.48 420.639 311.838 418.368 311.838Z" fill="black"/>
<path d="M431.306 307.912H427.885L423.255 315.33V317.356H428.998V319.471H431.306V317.356H432.827V315.418H431.306V307.912ZM429.046 315.482H425.361V315.418L428.99 309.666H429.046V315.482Z" fill="black"/>
<path fill-rule="evenodd" clip-rule="evenodd" d="M489.78 369.969C490.125 369.969 490.468 369.977 490.811 369.987C491.01 369.986 491.212 369.987 491.414 369.993C491.515 369.996 491.613 370.01 491.709 370.027C502.47 370.649 511.843 376.437 517.388 384.95C517.781 385.246 518.062 385.683 518.154 386.187C521.044 391.084 522.705 396.795 522.705 402.894C522.705 408.992 521.044 414.701 518.154 419.599C518.063 420.104 517.781 420.541 517.386 420.838C511.884 429.284 502.613 435.048 491.957 435.744C491.744 435.812 491.517 435.847 491.28 435.839C491.077 435.832 490.875 435.82 490.674 435.806C490.562 435.809 490.449 435.809 490.337 435.811C490.182 435.821 490.026 435.833 489.869 435.839C489.734 435.844 489.602 435.835 489.474 435.814C471.431 435.65 456.856 420.975 456.855 402.894C456.856 384.71 471.597 369.969 489.78 369.969ZM478.089 421.24C478.45 422.022 478.835 422.769 479.244 423.477C481.646 427.63 484.789 430.364 488.5 431.392V421.24H478.089ZM492.5 431.366C495.84 430.332 498.714 427.655 500.94 423.528C501.331 422.805 501.698 422.041 502.041 421.24H492.5V431.366ZM467.419 421.24C470.425 424.899 474.311 427.806 478.754 429.64C477.653 428.397 476.661 427 475.781 425.479C475.019 424.162 474.337 422.743 473.735 421.24H467.419ZM506.35 421.24C505.794 422.724 505.164 424.125 504.461 425.428C503.756 426.734 502.97 427.953 502.106 429.064C506.008 427.223 509.433 424.538 512.142 421.24H506.35ZM460.926 404.894C461.231 409.364 462.551 413.557 464.659 417.24H472.38C471.312 413.457 470.687 409.282 470.527 404.894H460.926ZM474.529 404.894C474.705 409.406 475.406 413.586 476.555 417.24H488.5V404.894H474.529ZM492.5 417.24H503.465C504.533 413.584 505.185 409.404 505.349 404.894H492.5V417.24ZM509.351 404.894C509.201 409.284 508.616 413.458 507.617 417.24H514.9C517.009 413.556 518.329 409.365 518.635 404.894H509.351ZM464.658 388.548C462.55 392.231 461.231 396.423 460.926 400.894H470.511C470.641 396.517 471.267 392.339 472.333 388.548H464.658ZM476.504 388.548C475.357 392.218 474.657 396.405 474.514 400.894H488.5V388.548H476.504ZM492.5 400.894H505.364C505.231 396.407 504.579 392.22 503.513 388.548H492.5V400.894ZM507.662 388.548C508.659 392.338 509.244 396.516 509.366 400.894H518.635C518.329 396.423 517.009 392.231 514.901 388.548H507.662ZM478.518 376.243C474.172 378.082 470.371 380.953 467.418 384.548H473.677C474.358 382.83 475.143 381.223 476.022 379.749C476.777 378.486 477.61 377.31 478.518 376.243ZM488.5 374.273C485.023 375.098 481.913 377.687 479.457 381.8C478.945 382.658 478.466 383.576 478.023 384.548H488.5V374.273ZM492.5 384.548H502.101C501.681 383.557 501.229 382.62 500.742 381.747C498.464 377.657 495.622 375.13 492.5 374.294V384.548ZM502.307 376.814C503.002 377.743 503.647 378.742 504.236 379.801C505.049 381.259 505.773 382.85 506.403 384.548H512.142C509.479 381.306 506.126 378.653 502.307 376.814Z" fill="#4F4F4F"/>
<path d="M464.658 388.548C462.55 392.231 461.231 396.423 460.926 400.894H470.511C470.641 396.517 471.267 392.339 472.333 388.548H464.658Z" fill="#8A8A8A"/>
<path d="M476.504 388.548C475.357 392.218 474.657 396.405 474.514 400.894H488.5V388.548H476.504Z" fill="#8A8A8A"/>
<path d="M488.5 374.273C485.023 375.098 481.913 377.687 479.457 381.8C478.945 382.658 478.466 383.576 478.023 384.548H488.5V374.273Z" fill="#8A8A8A"/>
<path d="M478.518 376.243C474.172 378.082 470.371 380.953 467.418 384.548H473.677C474.358 382.83 475.143 381.223 476.022 379.749C476.777 378.486 477.61 377.31 478.518 376.243Z" fill="#8A8A8A"/>
<path d="M492.5 384.548H502.101C501.681 383.557 501.229 382.62 500.742 381.747C498.464 377.657 495.622 375.13 492.5 374.294V384.548Z" fill="#8A8A8A"/>
<path d="M492.5 400.894H505.364C505.231 396.407 504.579 392.22 503.513 388.548H492.5V400.894Z" fill="#8A8A8A"/>
<path d="M502.307 376.814C503.002 377.743 503.647 378.742 504.236 379.801C505.049 381.259 505.773 382.85 506.403 384.548H512.142C509.479 381.306 506.126 378.653 502.307 376.814Z" fill="#8A8A8A"/>
<path d="M507.662 388.548C508.659 392.338 509.244 396.516 509.366 400.894H518.635C518.329 396.423 517.009 392.231 514.901 388.548H507.662Z" fill="#8A8A8A"/>
<path d="M509.351 404.894C509.201 409.284 508.616 413.458 507.617 417.24H514.9C517.009 413.556 518.329 409.365 518.635 404.894H509.351Z" fill="#8A8A8A"/>
<path d="M492.5 417.24H503.465C504.533 413.584 505.185 409.404 505.349 404.894H492.5V417.24Z" fill="#8A8A8A"/>
<path d="M492.5 431.366C495.84 430.332 498.714 427.655 500.94 423.528C501.331 422.805 501.698 422.041 502.041 421.24H492.5V431.366Z" fill="#8A8A8A"/>
<path d="M506.35 421.24C505.794 422.724 505.164 424.125 504.461 425.428C503.756 426.734 502.97 427.953 502.106 429.064C506.008 427.223 509.433 424.538 512.142 421.24H506.35Z" fill="#8A8A8A"/>
<path d="M478.089 421.24C478.45 422.022 478.835 422.769 479.244 423.477C481.646 427.63 484.789 430.364 488.5 431.392V421.24H478.089Z" fill="#8A8A8A"/>
<path d="M467.419 421.24C470.425 424.899 474.311 427.806 478.754 429.64C477.653 428.397 476.661 427 475.781 425.479C475.019 424.162 474.337 422.743 473.735 421.24H467.419Z" fill="#8A8A8A"/>
<path d="M460.926 404.894C461.231 409.364 462.551 413.557 464.659 417.24H472.38C471.312 413.457 470.687 409.282 470.527 404.894H460.926Z" fill="#8A8A8A"/>
<path d="M474.529 404.894C474.705 409.406 475.406 413.586 476.555 417.24H488.5V404.894H474.529Z" fill="#8A8A8A"/>
<path d="M77.5034 386.548H251.382V213.228H77.5034V386.548Z" fill="white"/>
<path fill-rule="evenodd" clip-rule="evenodd" d="M253.382 388.549H75.5029V211.229H253.382V388.549ZM79.5039 384.549H249.382V215.229H79.5039V384.549Z" fill="black"/>
<path d="M167.299 228.515L119.735 273.638L144.319 301.302L153.404 290.022L167.299 228.515Z" fill="#BFC2C7"/>
<path d="M208.183 265.849L167.299 228.515L153.404 290.022L208.183 265.849Z" fill="#5A5E61"/>
<path d="M221.01 316.612L208.183 265.849L153.404 290.022L144.319 301.302L152.602 334.07L221.01 316.612Z" fill="#1F2024"/>
<path d="M168.751 371.909C191.533 354.07 207.989 341.184 221.01 316.612L152.602 334.07L168.368 372.209L168.751 371.909Z" fill="#030303"/>
<path d="M138.173 354.483L168.368 372.209L152.602 334.07L138.173 354.483Z" fill="#0B0C0E"/>
<path d="M106.641 326.818L138.173 354.483L152.602 334.07L144.319 301.302C130.56 312.448 122.372 318.106 106.641 326.818Z" fill="#1B1F22"/>
<path d="M119.735 273.638L106.641 326.818C122.372 318.106 130.56 312.448 144.319 301.302L119.735 273.638Z" fill="#666666"/>
<path d="M271.875 244.625V222.735H281.034C282.795 222.735 284.295 223.052 285.534 223.686C286.774 224.313 287.718 225.186 288.368 226.305C289.026 227.416 289.354 228.699 289.354 230.153C289.354 231.606 289.022 232.889 288.357 234C287.692 235.112 286.728 235.978 285.466 236.598C284.212 237.218 282.693 237.528 280.909 237.528H275.072V233.819H280.116C281.061 233.819 281.839 233.666 282.451 233.359C283.071 233.046 283.532 232.614 283.834 232.066C284.144 231.51 284.299 230.872 284.299 230.153C284.299 229.426 284.144 228.792 283.834 228.25C283.532 227.701 283.071 227.277 282.451 226.978C281.831 226.672 281.045 226.519 280.093 226.519H276.783V244.625H271.875Z" fill="black"/>
<path d="M297.281 222.735V244.625H292.452V222.735H297.281Z" fill="black"/>
<path d="M301.149 244.625V228.207H305.978V244.625H301.149ZM303.575 226.091C302.857 226.091 302.241 225.867 301.727 225.418C301.221 224.962 300.968 224.416 300.968 223.782C300.968 223.155 301.221 222.617 301.727 222.168C302.241 221.712 302.857 221.484 303.575 221.484C304.293 221.484 304.905 221.712 305.411 222.168C305.925 222.617 306.182 223.155 306.182 223.782C306.182 224.416 305.925 224.962 305.411 225.418C304.905 225.867 304.293 226.091 303.575 226.091Z" fill="black"/>
<path d="M314.675 235.133V244.625H309.846V228.207H314.448V231.104H314.652C315.038 230.149 315.684 229.394 316.591 228.838C317.498 228.275 318.597 227.994 319.889 227.994C321.098 227.994 322.153 228.243 323.052 228.742C323.951 229.241 324.65 229.953 325.149 230.879C325.648 231.799 325.897 232.896 325.897 234.171V244.625H321.068V234.984C321.076 233.979 320.804 233.195 320.252 232.632C319.7 232.062 318.941 231.777 317.974 231.777C317.324 231.777 316.749 231.909 316.251 232.173C315.759 232.436 315.374 232.821 315.094 233.327C314.822 233.826 314.683 234.428 314.675 235.133Z" fill="black"/>
<path d="M332.061 250.781C331.449 250.781 330.874 250.735 330.338 250.642C329.809 250.557 329.371 250.446 329.023 250.311L330.111 246.912C330.678 247.076 331.188 247.165 331.641 247.179C332.102 247.193 332.499 247.094 332.832 246.88C333.172 246.666 333.448 246.303 333.659 245.79L333.942 245.095L327.697 228.207H332.775L336.38 240.264H336.561L340.2 228.207H345.312L338.545 246.399C338.22 247.283 337.778 248.052 337.218 248.708C336.667 249.37 335.968 249.88 335.121 250.236C334.275 250.599 333.255 250.781 332.061 250.781Z" fill="black"/>
<path d="M370.655 229.811C370.497 229.29 370.274 228.831 369.987 228.432C369.699 228.026 369.348 227.684 368.932 227.406C368.524 227.121 368.056 226.903 367.527 226.754C367.005 226.604 366.427 226.529 365.792 226.529C364.606 226.529 363.563 226.807 362.664 227.363C361.772 227.919 361.077 228.727 360.578 229.789C360.079 230.844 359.83 232.134 359.83 233.658C359.83 235.183 360.076 236.48 360.567 237.549C361.058 238.618 361.753 239.434 362.652 239.997C363.552 240.552 364.613 240.83 365.838 240.83C366.949 240.83 367.897 240.645 368.683 240.275C369.476 239.897 370.081 239.366 370.497 238.682C370.92 237.998 371.131 237.189 371.131 236.256L372.129 236.395H366.144V232.91H375.858V235.668C375.858 237.592 375.428 239.245 374.566 240.627C373.705 242.002 372.518 243.064 371.007 243.812C369.495 244.553 367.765 244.924 365.815 244.924C363.639 244.924 361.727 244.471 360.079 243.567C358.432 242.654 357.147 241.361 356.225 239.687C355.311 238.005 354.854 236.01 354.854 233.701C354.854 231.927 355.126 230.345 355.67 228.955C356.221 227.559 356.992 226.376 357.982 225.407C358.972 224.438 360.125 223.7 361.44 223.194C362.754 222.689 364.179 222.436 365.713 222.436C367.028 222.436 368.252 222.617 369.386 222.981C370.519 223.337 371.524 223.843 372.401 224.498C373.285 225.154 374.007 225.934 374.566 226.839C375.125 227.737 375.484 228.727 375.643 229.811H370.655Z" fill="black"/>
<path d="M384.419 244.935C383.309 244.935 382.319 244.753 381.45 244.39C380.58 244.019 379.893 243.474 379.386 242.754C378.888 242.027 378.638 241.122 378.638 240.039C378.638 239.127 378.816 238.361 379.171 237.741C379.526 237.121 380.01 236.623 380.622 236.245C381.234 235.867 381.929 235.582 382.708 235.39C383.494 235.198 384.317 235.062 385.179 234.984C386.192 234.884 387.008 234.791 387.627 234.706C388.247 234.613 388.697 234.478 388.976 234.3C389.256 234.122 389.396 233.858 389.396 233.509V233.445C389.396 232.768 389.169 232.244 388.716 231.873C388.27 231.503 387.635 231.318 386.811 231.318C385.942 231.318 385.251 231.499 384.737 231.863C384.223 232.219 383.883 232.668 383.717 233.209L379.25 232.867C379.477 231.87 379.923 231.008 380.588 230.281C381.253 229.547 382.111 228.984 383.161 228.592C384.219 228.193 385.443 227.994 386.834 227.994C387.801 227.994 388.727 228.1 389.611 228.314C390.503 228.528 391.293 228.859 391.98 229.308C392.675 229.757 393.223 230.334 393.624 231.04C394.024 231.738 394.225 232.575 394.225 233.552V244.625H389.645V242.348H389.509C389.229 242.861 388.855 243.314 388.387 243.705C387.918 244.09 387.355 244.393 386.698 244.614C386.04 244.828 385.281 244.935 384.419 244.935ZM385.802 241.792C386.513 241.792 387.14 241.66 387.684 241.397C388.228 241.126 388.655 240.763 388.965 240.307C389.275 239.851 389.43 239.334 389.43 238.757V237.015C389.279 237.107 389.071 237.193 388.806 237.271C388.549 237.342 388.258 237.41 387.933 237.474C387.608 237.531 387.284 237.585 386.959 237.634C386.634 237.677 386.339 237.716 386.074 237.752C385.508 237.83 385.013 237.955 384.589 238.126C384.166 238.297 383.838 238.529 383.603 238.821C383.369 239.106 383.252 239.462 383.252 239.89C383.252 240.51 383.49 240.983 383.966 241.311C384.45 241.632 385.062 241.792 385.802 241.792Z" fill="black"/>
<path d="M402.8 222.735V244.625H397.971V222.735H402.8Z" fill="black"/>
<path d="M414.603 244.945C412.812 244.945 411.27 244.603 409.978 243.919C408.693 243.228 407.703 242.252 407.008 240.991C406.313 239.722 405.965 238.222 405.965 236.491C405.965 234.802 406.313 233.32 407.008 232.044C407.703 230.769 408.682 229.775 409.944 229.062C411.214 228.35 412.702 227.994 414.41 227.994C415.559 227.994 416.628 228.168 417.618 228.517C418.616 228.859 419.485 229.376 420.225 230.067C420.974 230.758 421.555 231.628 421.971 232.675C422.387 233.715 422.595 234.934 422.595 236.33V237.581H407.892V234.759H418.049C418.049 234.104 417.898 233.523 417.596 233.017C417.293 232.511 416.874 232.116 416.337 231.831C415.808 231.539 415.192 231.392 414.49 231.392C413.757 231.392 413.107 231.553 412.54 231.873C411.981 232.187 411.542 232.611 411.225 233.145C410.908 233.673 410.745 234.261 410.738 234.909V237.592C410.738 238.404 410.896 239.106 411.214 239.697C411.539 240.289 411.996 240.745 412.585 241.065C413.175 241.386 413.874 241.546 414.682 241.546C415.219 241.546 415.71 241.475 416.156 241.333C416.602 241.19 416.983 240.976 417.301 240.691C417.618 240.406 417.86 240.057 418.026 239.644L422.493 239.922C422.266 240.934 421.801 241.817 421.098 242.573C420.403 243.321 419.504 243.905 418.4 244.325C417.305 244.739 416.039 244.945 414.603 244.945Z" fill="black"/>
<path d="M430.575 235.133V244.625H425.746V228.207H430.348V231.104H430.552C430.937 230.149 431.584 229.394 432.49 228.838C433.397 228.275 434.497 227.994 435.789 227.994C436.998 227.994 438.052 228.243 438.952 228.742C439.851 229.241 440.55 229.953 441.049 230.879C441.547 231.799 441.797 232.896 441.797 234.171V244.625H436.968V234.984C436.976 233.979 436.703 233.195 436.152 232.632C435.6 232.062 434.841 231.777 433.873 231.777C433.223 231.777 432.649 231.909 432.15 232.173C431.659 232.436 431.274 232.821 430.994 233.327C430.722 233.826 430.582 234.428 430.575 235.133Z" fill="black"/>
<path d="M151.507 401C152.368 400.926 153.149 400.938 153.813 401.058C154.463 401.175 155.104 401.414 155.566 401.88C156.064 402.382 156.148 403.025 156.05 403.582C155.957 404.105 155.698 404.625 155.394 405.102C154.777 406.066 153.776 407.154 152.651 408.228C150.385 410.391 147.411 412.692 145.366 414.15L144.205 412.521C146.209 411.092 149.099 408.853 151.271 406.781C152.365 405.736 153.225 404.782 153.709 404.025C153.953 403.643 154.054 403.383 154.08 403.236C153.984 403.173 153.796 403.087 153.458 403.026C153.025 402.947 152.433 402.927 151.68 402.993C150.175 403.123 148.159 403.582 145.744 404.424C140.923 406.105 134.641 409.267 127.896 414.146C121.137 419.035 117.422 423.111 115.711 426.245C113.999 429.38 114.387 431.334 115.32 432.38C115.431 432.504 115.704 432.678 116.302 432.757C116.889 432.835 117.682 432.806 118.675 432.638C120.658 432.303 123.273 431.444 126.299 430.047C131.487 427.652 137.775 423.726 143.995 418.362C139.353 419.729 133.208 421.815 130.012 422.94L129.348 421.053C133.578 419.565 143.194 416.317 147.528 415.346L150.53 414.673L148.498 416.983C145.394 420.51 140.65 426.038 136.507 431.159C135.578 432.306 134.682 433.432 133.842 434.508C141.891 431.647 150.563 429.414 158.745 427.692C175.54 424.157 190.47 422.733 194.184 422.492C199.658 422.135 207.637 421.757 212.258 421.999C213.408 422.06 214.409 422.161 215.125 422.327C215.468 422.407 215.845 422.524 216.146 422.719C216.3 422.82 216.499 422.982 216.637 423.232C216.791 423.511 216.833 423.836 216.749 424.151C216.674 424.433 216.515 424.643 216.381 424.784C216.242 424.929 216.08 425.051 215.92 425.155C215.601 425.361 215.182 425.561 214.686 425.76C213.685 426.161 212.212 426.619 210.2 427.145L209.694 425.209C211.338 424.78 212.564 424.408 213.439 424.092C213.062 424.055 212.632 424.022 212.153 423.996C207.666 423.761 199.798 424.13 194.313 424.487C190.68 424.723 175.844 426.136 159.156 429.649C149.958 431.585 140.259 434.149 131.576 437.477C131.391 437.727 131.212 437.973 131.038 438.212C129.526 440.296 128.548 441.847 128.248 442.653L126.373 441.955C126.656 441.194 127.293 440.117 128.146 438.853C122.399 441.276 117.226 444.069 113.116 447.274L111.885 445.696C116.852 441.822 123.269 438.557 130.322 435.815C131.671 434.013 133.264 431.987 134.952 429.901C136.365 428.155 137.847 426.363 139.31 424.618C134.996 427.74 130.812 430.167 127.137 431.864C124.017 433.304 121.226 434.236 119.008 434.611C117.901 434.798 116.893 434.853 116.038 434.74C115.196 434.628 114.384 434.334 113.828 433.711C112.097 431.771 112.039 428.798 113.956 425.287C115.873 421.777 119.859 417.491 126.725 412.525C133.605 407.548 140.059 404.289 145.086 402.535C147.595 401.661 149.782 401.15 151.507 401Z" fill="black"/>
<path d="M194.699 429.332C171.339 431.121 153.721 433.561 132.866 443.866L131.979 442.073C153.183 431.595 171.109 429.133 194.546 427.338L194.699 429.332Z" fill="black"/>
<path d="M192.593 407.569C205.647 405.56 219.293 406.064 220.313 406.064V408.064C219.217 408.064 205.99 407.575 193.229 409.495C191.322 411.48 188.591 414.435 186.304 417.146C185.111 418.56 184.053 419.892 183.299 420.977C182.921 421.521 182.633 421.982 182.443 422.349C182.256 422.713 182.222 422.875 182.217 422.892H180.217C180.217 422.393 180.443 421.865 180.666 421.432C180.912 420.956 181.254 420.413 181.656 419.834C182.463 418.675 183.567 417.288 184.775 415.856C186.433 413.891 188.315 411.807 189.957 410.046C186.662 410.663 183.491 411.459 180.669 412.484L180.328 411.543L180.252 411.334C179.591 412.168 178.913 413.041 178.23 413.92C176.938 415.586 175.633 417.277 174.439 418.744C173.254 420.202 172.139 421.486 171.227 422.316C170.782 422.72 170.312 423.087 169.853 423.285C169.62 423.385 169.31 423.477 168.967 423.445C168.583 423.409 168.237 423.224 167.993 422.916C167.769 422.634 167.657 422.288 167.59 422.018C167.517 421.724 167.469 421.39 167.436 421.047C167.369 420.36 167.355 419.534 167.362 418.702C167.37 417.866 167.4 416.995 167.428 416.212C167.449 415.622 167.464 415.09 167.473 414.65C165.94 416.418 163.547 419.538 161.581 422.172C160.783 423.242 160.063 424.219 159.515 424.973L157.897 423.797C157.986 423.676 158.078 423.549 158.175 423.417C156.219 424.058 153.922 424.79 151.861 425.37C150.384 425.787 148.998 426.136 147.938 426.32C147.415 426.41 146.921 426.469 146.518 426.462C146.32 426.459 146.085 426.44 145.86 426.369C145.65 426.304 145.279 426.138 145.074 425.725C144.94 425.454 144.946 425.195 144.964 425.044C144.983 424.885 145.029 424.742 145.071 424.632C145.156 424.412 145.283 424.182 145.42 423.962C145.699 423.515 146.114 422.958 146.614 422.334C147.62 421.08 149.051 419.458 150.646 417.715C153.839 414.225 157.745 410.197 160.366 407.554L161.786 408.962C159.175 411.595 155.29 415.602 152.121 419.065C150.534 420.799 149.139 422.383 148.175 423.585C147.949 423.867 147.751 424.123 147.582 424.351C147.587 424.35 147.592 424.35 147.597 424.349C148.552 424.183 149.858 423.857 151.319 423.445C154.233 422.623 157.649 421.496 159.869 420.749L159.955 421.006C159.963 420.996 159.971 420.986 159.979 420.976C162.317 417.843 165.406 413.82 166.882 412.332C167.025 412.188 167.246 412.012 167.537 411.914C167.856 411.807 168.302 411.788 168.713 412.07C169.079 412.321 169.255 412.704 169.346 413.026C169.44 413.361 169.48 413.765 169.48 414.231C169.48 414.775 169.454 415.507 169.427 416.283C169.399 417.068 169.369 417.915 169.362 418.721C169.355 419.532 169.371 420.274 169.427 420.856C169.438 420.976 169.453 421.086 169.467 421.184C169.584 421.093 169.723 420.98 169.881 420.836C170.672 420.117 171.705 418.937 172.889 417.483C174.064 416.038 175.351 414.37 176.65 412.695C177.945 411.026 179.251 409.351 180.449 407.916L181.984 409.199C181.717 409.519 181.443 409.852 181.165 410.196C184.694 409.025 188.629 408.179 192.593 407.569Z" fill="black"/>
<defs>
<radialGradient id="paint0_radial_2652_3119" cx="0" cy="0" r="1" gradientUnits="userSpaceOnUse" gradientTransform="translate(300.059 299.675) scale(249.87 166.068)">
<stop stop-color="#F5F5F5"/>
<stop offset="0.5" stop-color="#D7D7D7"/>
<stop offset="1" stop-color="#BABABA"/>
</radialGradient>
<radialGradient id="paint1_radial_2652_3119" cx="0" cy="0" r="1" gradientUnits="userSpaceOnUse" gradientTransform="translate(300.056 169.129) scale(165.601 165.601)">
<stop stop-color="#CCCCCC"/>
<stop offset="0.5" stop-color="#A8A8A8"/>
<stop offset="1" stop-color="#838383"/>
</radialGradient>
<radialGradient id="paint2_radial_2652_3119" cx="0" cy="0" r="1" gradientUnits="userSpaceOnUse" gradientTransform="translate(300.056 169.129) scale(165.601 165.601)">
<stop stop-color="#AFAFAF"/>
<stop offset="0.5" stop-color="#868686"/>
<stop offset="1" stop-color="#5E5E5E"/>
</radialGradient>
</defs>
</svg>
