<svg width="600" height="600" viewBox="0 0 600 600" fill="none" xmlns="http://www.w3.org/2000/svg">
<path fill-rule="evenodd" clip-rule="evenodd" d="M490.137 110.137C439.954 59.9544 358.593 59.9544 308.41 110.137C276.334 142.213 264.763 187.027 273.692 228.296C265.047 236.962 255.594 247.135 262.802 264.64L112.188 415.253L112.188 493.035L189.97 493.035L189.97 447.073L235.932 447.073L235.932 401.111L281.894 401.111L303.814 379.191L303.814 333.229C361.415 345.171 361.794 345.249 379.128 327.919C418.357 334.113 459.905 322.095 490.137 291.863C540.319 241.681 540.319 160.319 490.137 110.137ZM457.61 142.664C469.521 154.575 469.521 173.886 457.61 185.797C445.699 197.708 426.387 197.708 414.476 185.797C402.565 173.886 402.565 154.575 414.476 142.664C426.387 130.753 445.699 130.753 457.61 142.664Z" fill="#D9D9D9"/>
<path fill-rule="evenodd" clip-rule="evenodd" d="M464.681 135.593C448.865 119.776 423.222 119.776 407.405 135.593C391.589 151.409 391.589 177.052 407.405 192.868C423.222 208.685 448.865 208.685 464.681 192.868C480.497 177.052 480.497 151.409 464.681 135.593ZM457.61 142.664C469.521 154.575 469.521 173.886 457.61 185.797C445.699 197.708 426.387 197.708 414.476 185.797C402.565 173.886 402.565 154.575 414.476 142.664C426.387 130.753 445.699 130.753 457.61 142.664Z" fill="#5D5D5D"/>
<path fill-rule="evenodd" clip-rule="evenodd" d="M490.137 110.137C439.954 59.9544 358.593 59.9544 308.41 110.137C276.334 142.213 264.763 187.027 273.692 228.296C265.047 236.962 255.594 247.135 262.802 264.64L112.188 415.253L112.188 493.035L189.97 493.035L189.97 447.073L235.932 447.073L235.932 401.111L281.894 401.111L303.814 379.191L303.814 333.229C361.415 345.171 361.794 345.249 379.128 327.919C418.357 334.113 459.905 322.095 490.137 291.863C540.319 241.681 540.319 160.319 490.137 110.137ZM483.066 117.208C529.343 163.485 529.343 238.515 483.066 284.792C455.627 312.23 418.087 323.407 382.386 318.297L380.687 318.041L375.658 317.247L372.058 320.847C367.516 325.388 364.984 327.833 362.61 329.412C360.728 330.664 358.936 331.363 355.882 331.574C352.39 331.816 347.372 331.406 339.105 330.013C330.928 328.636 320.322 326.439 305.844 323.437L293.814 320.943L293.814 375.049L277.752 391.111L225.932 391.111L225.932 437.073L179.97 437.073L179.97 483.035L122.189 483.035L122.189 419.395L274.587 266.996L272.048 260.832C269.429 254.471 270.059 250.375 271.465 247.16C273.154 243.299 276.336 239.806 280.772 235.359L284.617 231.504L283.466 226.182C275.225 188.094 285.909 146.78 315.481 117.208C361.759 70.9307 436.789 70.9307 483.066 117.208Z" fill="#5D5D5D"/>
<path d="M275.176 286.206C278.496 282.887 283.878 282.887 287.197 286.206C290.517 289.526 290.517 294.908 287.197 298.227L122.088 463.337L122.088 439.295L275.176 286.206Z" fill="#AEAEAE"/>
<path d="M274.116 286.56C276.068 284.607 279.234 284.607 281.187 286.56C283.139 288.513 283.139 291.678 281.187 293.631L122.088 452.73L122.088 438.588L274.116 286.56Z" fill="#929292"/>
<path d="M309.471 320.501C312.79 317.182 318.172 317.182 321.492 320.501C323.336 322.345 324.155 324.825 323.951 327.234L306.289 323.683L309.471 320.501Z" fill="#AEAEAE"/>
<path d="M170.878 483.136L146.836 483.136L180.07 449.902L180.07 473.943L170.878 483.136Z" fill="#AEAEAE"/>
<path d="M216.84 437.174L192.798 437.174L226.032 403.94L226.032 427.981L216.84 437.174Z" fill="#AEAEAE"/>
<path d="M262.802 391.212L238.76 391.212L293.915 336.057L293.915 360.099L262.802 391.212Z" fill="#AEAEAE"/>
<path d="M308.41 320.855C310.363 318.902 313.529 318.902 315.481 320.855C316.79 322.163 317.222 324.017 316.776 325.685L305.935 323.329L308.41 320.855Z" fill="#929292"/>
<path d="M160.271 483.136L146.129 483.136L180.07 449.195L180.07 463.337L160.271 483.136Z" fill="#929292"/>
<path d="M206.233 437.174L192.091 437.174L226.032 403.233L226.032 417.375L206.233 437.174Z" fill="#929292"/>
<path d="M252.195 391.212L238.053 391.212L293.915 335.35L293.915 349.492L252.195 391.212Z" fill="#929292"/>
<path fill-rule="evenodd" clip-rule="evenodd" d="M474.934 124.632C433.343 83.0416 365.911 83.0417 324.32 124.632C282.729 166.223 282.729 233.655 324.32 275.246C365.911 316.837 433.343 316.837 474.934 275.246C516.525 233.655 516.525 166.223 474.934 124.632ZM464.327 135.239C469.465 140.376 472.932 146.551 474.732 153.089C496.084 187.251 491.909 232.815 462.206 262.518C427.645 297.08 371.61 297.08 337.048 262.518C302.487 227.957 302.487 171.922 337.048 137.36C366.752 107.657 412.316 103.482 446.478 124.835C453.016 126.636 459.19 130.102 464.327 135.239Z" fill="#C3C3C3"/>
<path fill-rule="evenodd" clip-rule="evenodd" d="M474.934 124.632C433.343 83.0416 365.911 83.0417 324.32 124.632C282.729 166.223 282.729 233.655 324.32 275.246C365.911 316.837 433.343 316.837 474.934 275.246C516.525 233.655 516.525 166.223 474.934 124.632ZM471.398 128.168C511.037 167.806 511.037 232.072 471.398 271.711C431.76 311.349 367.494 311.349 327.856 271.711C288.218 232.072 288.218 167.806 327.856 128.168C367.494 88.5298 431.76 88.5298 471.398 128.168Z" fill="#989898"/>
<path d="M375.585 317.319C360.736 332.168 361.443 333.583 339.588 330.112L339.588 98.575C355.079 88.9236 374.4 84.9099 379.327 84.1796L379.327 317.82L375.585 317.319Z" fill="#ECECEC" fill-opacity="0.5"/>
<path d="M397.094 301.467C398.181 301.513 411.294 301.41 419.204 299.552L419.204 201.064L419.205 200.878C414.797 198.916 410.667 196.13 407.052 192.515C402.311 187.774 398.994 182.15 397.095 176.173L397.094 301.467Z" fill="#ECECEC" fill-opacity="0.5"/>
<path d="M419.205 84.1948C412.001 82.9134 400.442 82.1871 397.094 82.5099L397.094 151.583C398.993 145.605 402.311 139.98 407.052 135.239C410.667 131.624 414.797 128.838 419.205 126.875L419.205 84.1948Z" fill="#ECECEC" fill-opacity="0.5"/>
</svg>
