<svg width="27" height="27" viewBox="0 0 27 27" fill="none" xmlns="http://www.w3.org/2000/svg">
<path d="M14.2109 2.25V1.25V2.25ZM15.3379 2.37988L15.8309 1.50985L15.8308 1.50982L15.3379 2.37988ZM15.6621 2.67285L16.479 2.09603L16.4789 2.09593L15.6621 2.67285ZM15.9033 3.78223L14.9083 3.88155L15.9033 3.78223ZM16.3711 5.7373L15.7149 6.49187L15.715 6.49196L16.3711 5.7373ZM16.958 5.97949L16.888 6.97704L16.8885 6.97708L16.958 5.97949ZM18.6729 4.92871L18.0397 4.15464L18.6729 4.92871ZM19.6279 4.31543L19.4589 3.32981L19.4589 3.32982L19.6279 4.31543ZM20.0635 4.33691L20.3299 3.37307L20.3299 3.37305L20.0635 4.33691ZM21.957 6.04688L22.6641 5.33977L21.957 6.04688ZM22.6631 6.93652L23.627 6.6703L23.6269 6.66998L22.6631 6.93652ZM22.6846 7.37207L23.6701 7.5415L23.6702 7.54126L22.6846 7.37207ZM22.0713 8.32715L22.8452 8.96048L22.0713 8.32715ZM21.0195 10.042L20.022 10.112L20.022 10.1122L21.0195 10.042ZM21.2627 10.6279L20.5077 11.2837L20.5084 11.2845L21.2627 10.6279ZM23.2178 11.0967L23.1183 12.0917L23.2178 11.0967ZM24.3271 11.3389L24.9045 10.5224L24.9044 10.5223L24.3271 11.3389ZM24.6201 11.6621L25.4903 11.1693L25.4901 11.169L24.6201 11.6621ZM24.75 12.7891H25.75H24.75ZM24.75 14.2109H25.75H24.75ZM24.6201 15.3379L25.4901 15.8309L25.4902 15.8307L24.6201 15.3379ZM24.3271 15.6621L24.904 16.479L24.904 16.479L24.3271 15.6621ZM23.2188 15.9033L23.3181 16.8984L23.2188 15.9033ZM21.2637 16.3711L20.5095 15.7144L20.5091 15.7149L21.2637 16.3711ZM21.0205 16.958L20.0229 16.8882L20.0229 16.8884L21.0205 16.958ZM22.0713 18.6719L21.2973 19.3051L22.0713 18.6719ZM22.6846 19.627L23.6701 19.4577L23.6701 19.4575L22.6846 19.627ZM22.6631 20.0625L23.6269 20.3291L23.627 20.3288L22.6631 20.0625ZM21.958 20.9512L21.2508 20.2442L21.2506 20.2444L21.958 20.9512ZM20.9531 21.957L21.6603 22.664L21.6606 22.6638L20.9531 21.957ZM20.0635 22.6631L20.3299 23.6269L20.33 23.6269L20.0635 22.6631ZM19.6279 22.6846L19.4588 23.6702L19.4589 23.6702L19.6279 22.6846ZM18.6729 22.0713L18.0396 22.8453L18.6729 22.0713ZM16.958 21.0195L16.8886 20.0219L16.888 20.022L16.958 21.0195ZM16.3721 21.2627L15.7162 20.5079L15.7161 20.5079L16.3721 21.2627ZM15.9033 23.2178L14.9083 23.1185L15.9033 23.2178ZM15.6611 24.3271L16.4777 24.9045L16.4779 24.9041L15.6611 24.3271ZM15.3379 24.6201L15.8309 25.4901L15.8309 25.4901L15.3379 24.6201ZM14.2109 24.75V25.75V24.75ZM12.7891 24.75V25.75V24.75ZM11.6621 24.6201L11.169 25.4901L11.1696 25.4904L11.6621 24.6201ZM11.3379 24.3271L10.521 24.904L10.5215 24.9046L11.3379 24.3271ZM11.0967 23.2178L12.0917 23.118L11.0967 23.2178ZM10.627 21.2627L11.2827 20.5077L11.2827 20.5077L10.627 21.2627ZM10.041 21.0205L10.1109 20.023L10.1108 20.0229L10.041 21.0205ZM8.32715 22.0713L8.96045 22.8452L8.32715 22.0713ZM7.37207 22.6846L7.54124 23.6702L7.54157 23.6701L7.37207 22.6846ZM6.93652 22.6631L6.66988 23.6269L6.67028 23.627L6.93652 22.6631ZM6.04688 21.957L5.33977 22.6641L6.04688 21.957ZM4.33691 20.0635L3.37305 20.3299L3.37307 20.3299L4.33691 20.0635ZM4.31543 19.6279L3.32982 19.4589L3.32981 19.4589L4.31543 19.6279ZM4.92871 18.6729L4.15464 18.0397L4.92871 18.6729ZM5.97949 16.958L6.97708 16.8885L6.97704 16.888L5.97949 16.958ZM5.7373 16.3711L6.49196 15.715L6.49187 15.7149L5.7373 16.3711ZM3.78223 15.9033L3.88155 14.9083L3.78223 15.9033ZM2.67285 15.6621L2.09593 16.4789L2.09603 16.479L2.67285 15.6621ZM2.37988 15.3379L1.50982 15.8308L1.50985 15.8309L2.37988 15.3379ZM2.25 14.2109H1.25H2.25ZM2.25 12.7891H1.25H2.25ZM2.37988 11.6621L1.50988 11.1691L1.50973 11.1693L2.37988 11.6621ZM2.67285 11.3379L2.09601 10.521L2.09567 10.5213L2.67285 11.3379ZM3.78125 11.0967L3.68173 10.1016L3.78125 11.0967ZM5.7373 10.6279L6.492 11.284L6.49226 11.2837L5.7373 10.6279ZM5.97949 10.042L6.97702 10.1123L6.97703 10.1121L5.97949 10.042ZM4.92871 8.32715L4.15473 8.96035L4.92871 8.32715ZM4.31543 7.37207L3.32985 7.54129L3.32985 7.5413L4.31543 7.37207ZM4.33691 6.93652L3.37304 6.67017L3.37301 6.67026L4.33691 6.93652ZM5.04199 6.04688L4.33489 5.33977L4.33478 5.33988L5.04199 6.04688ZM6.04688 5.04199L6.75398 5.7491L6.75409 5.74899L6.04688 5.04199ZM6.93652 4.33594L6.6701 3.37208L6.66987 3.37214L6.93652 4.33594ZM7.37207 4.31445L7.5413 3.32888L7.54105 3.32883L7.37207 4.31445ZM8.32715 4.92773L8.96035 4.15375L8.32715 4.92773ZM10.042 5.97852L10.1118 6.97608L10.1122 6.97605L10.042 5.97852ZM10.6279 5.73633L11.2839 6.49113L11.2839 6.49108L10.6279 5.73633ZM11.0967 3.78125L10.1016 3.68171L11.0967 3.78125ZM11.3379 2.67285L10.5212 2.09584L10.5211 2.09592L11.3379 2.67285ZM11.6621 2.37988L11.1693 1.50976L11.1693 1.50976L11.6621 2.37988ZM14.2109 2.25V3.25C14.5285 3.25 14.6997 3.25096 14.8221 3.2621C14.9291 3.27185 14.9033 3.283 14.8449 3.24994L15.3379 2.37988L15.8308 1.50982C15.5432 1.34685 15.253 1.29306 15.0035 1.27034C14.7694 1.24903 14.4917 1.25 14.2109 1.25V2.25ZM15.3379 2.37988L14.8449 3.24991L14.8453 3.24977L15.6621 2.67285L16.4789 2.09593C16.3078 1.85374 16.0858 1.65427 15.8309 1.50985L15.3379 2.37988ZM15.6621 2.67285L14.8452 3.24968C14.8064 3.19473 14.8151 3.16793 14.8355 3.27393C14.8587 3.39495 14.8767 3.5655 14.9083 3.88155L15.9033 3.78223L16.8984 3.68291C16.8705 3.40342 16.8439 3.12693 16.7994 2.89597C16.7521 2.65 16.6698 2.36628 16.479 2.09603L15.6621 2.67285ZM15.9033 3.78223L14.9083 3.88155C14.9623 4.42269 15.0093 4.90973 15.0881 5.28897C15.1649 5.65889 15.3094 6.13922 15.7149 6.49187L16.3711 5.7373L17.0273 4.98274C17.1334 5.075 17.1003 5.14249 17.0463 4.88231C16.9942 4.63146 16.9571 4.27117 16.8984 3.68291L15.9033 3.78223ZM16.3711 5.7373L15.715 6.49196C16.045 6.77889 16.458 6.94685 16.888 6.97704L16.958 5.97949L17.028 4.98195C17.0249 4.98173 17.0248 4.98058 17.0272 4.98264L16.3711 5.7373ZM16.958 5.97949L16.8885 6.97708C17.4237 7.01435 17.8653 6.77793 18.1818 6.57078C18.5063 6.35842 18.8844 6.04759 19.306 5.70278L18.6729 4.92871L18.0397 4.15464C17.5823 4.52875 17.3009 4.7571 17.0867 4.89729C16.8645 5.04269 16.8881 4.9722 17.0275 4.98191L16.958 5.97949ZM18.6729 4.92871L19.306 5.70278C19.552 5.50157 19.6852 5.39385 19.7871 5.32489C19.8761 5.26464 19.8632 5.28969 19.797 5.30104L19.6279 4.31543L19.4589 3.32982C19.1328 3.38575 18.874 3.5279 18.6664 3.66838C18.4716 3.80015 18.2572 3.97678 18.0397 4.15464L18.6729 4.92871ZM19.6279 4.31543L19.7969 5.30105L19.7971 5.30078L20.0635 4.33691L20.3299 3.37305C20.0451 3.29435 19.7476 3.28032 19.4589 3.32981L19.6279 4.31543ZM20.0635 4.33691L19.797 5.30076C19.732 5.28278 19.7216 5.25646 19.8045 5.32562C19.8993 5.40461 20.0212 5.52526 20.246 5.75008L20.9531 5.04297L21.6602 4.33586C21.4616 4.13726 21.2658 3.94002 21.0852 3.78941C20.8927 3.62897 20.6492 3.46132 20.3299 3.37307L20.0635 4.33691ZM20.9531 5.04297L20.246 5.75008L21.2499 6.75398L21.957 6.04688L22.6641 5.33977L21.6602 4.33586L20.9531 5.04297ZM21.957 6.04688L21.2499 6.75398C21.4747 6.97872 21.5953 7.10069 21.6743 7.19546C21.7436 7.2785 21.7173 7.26811 21.6993 7.20306L22.6631 6.93652L23.6269 6.66998C23.5386 6.35081 23.371 6.10727 23.2106 5.91485C23.06 5.73417 22.8627 5.53837 22.6641 5.33977L21.957 6.04688ZM22.6631 6.93652L21.6992 7.20275L21.699 7.20288L22.6846 7.37207L23.6702 7.54126C23.7198 7.25223 23.7056 6.95473 23.627 6.6703L22.6631 6.93652ZM22.6846 7.37207L21.699 7.20264C21.7103 7.13682 21.7352 7.12411 21.675 7.21314C21.6061 7.31495 21.4984 7.44821 21.2974 7.69382L22.0713 8.32715L22.8452 8.96048C23.0233 8.74288 23.1998 8.52851 23.3317 8.33353C23.4722 8.12579 23.6141 7.86715 23.6701 7.5415L22.6846 7.37207ZM22.0713 8.32715L21.2974 7.69382C20.9526 8.11521 20.6414 8.49323 20.4288 8.81757C20.2215 9.13395 19.9844 9.57596 20.022 10.112L21.0195 10.042L22.0171 9.97199C22.0269 10.112 21.956 10.1361 22.1016 9.91379C22.2421 9.69949 22.4706 9.41812 22.8452 8.96048L22.0713 8.32715ZM21.0195 10.042L20.022 10.1122C20.0526 10.5461 20.2242 10.9572 20.5077 11.2837L21.2627 10.6279L22.0176 9.97215L22.0171 9.97174L21.0195 10.042ZM21.2627 10.6279L20.5084 11.2845C20.8607 11.6892 21.3401 11.834 21.7103 11.9111C22.0897 11.9902 22.5767 12.0376 23.1183 12.0917L23.2178 11.0967L23.3173 10.1016C22.7293 10.0428 22.369 10.0055 22.1184 9.95322C21.8586 9.89907 21.9252 9.86597 22.017 9.97137L21.2627 10.6279ZM23.2178 11.0967L23.1183 12.0917C23.434 12.1233 23.6045 12.1414 23.725 12.1648C23.8305 12.1852 23.8042 12.1938 23.7499 12.1555L24.3271 11.3389L24.9044 10.5223C24.6347 10.3317 24.3517 10.249 24.1053 10.2013C23.8739 10.1565 23.5974 10.1297 23.3173 10.1016L23.2178 11.0967ZM24.3271 11.3389L23.7498 12.1553L23.7501 12.1552L24.6201 11.6621L25.4901 11.169C25.3441 10.9115 25.1434 10.6913 24.9045 10.5224L24.3271 11.3389ZM24.6201 11.6621L23.75 12.1549C23.717 12.0966 23.7281 12.0709 23.7379 12.1779C23.749 12.3004 23.75 12.4716 23.75 12.7891H24.75H25.75C25.75 12.5082 25.751 12.2306 25.7296 11.9965C25.7069 11.747 25.6531 11.4569 25.4903 11.1693L24.6201 11.6621ZM24.75 12.7891H23.75V14.2109H24.75H25.75V12.7891H24.75ZM24.75 14.2109H23.75C23.75 14.5284 23.749 14.6996 23.7379 14.8221C23.7281 14.9292 23.717 14.9034 23.75 14.8451L24.6201 15.3379L25.4902 15.8307C25.6531 15.5431 25.7069 15.253 25.7296 15.0035C25.751 14.7694 25.75 14.4918 25.75 14.2109H24.75ZM24.6201 15.3379L23.7501 14.8449L23.7503 14.8453L24.3271 15.6621L24.904 16.479C25.1463 16.3078 25.3457 16.0857 25.4901 15.8309L24.6201 15.3379ZM24.3271 15.6621L23.7503 14.8452C23.8051 14.8066 23.8318 14.8152 23.7262 14.8355C23.6055 14.8588 23.4352 14.8767 23.1194 14.9083L23.2188 15.9033L23.3181 16.8984C23.5975 16.8705 23.8738 16.8439 24.1047 16.7994C24.3507 16.7519 24.634 16.6696 24.904 16.479L24.3271 15.6621ZM23.2188 15.9033L23.1194 14.9083C22.5782 14.9623 22.0912 15.0094 21.712 15.0882C21.3421 15.165 20.8621 15.3095 20.5095 15.7144L21.2637 16.3711L22.0178 17.0278C21.9257 17.1335 21.8587 17.1004 22.1188 17.0464C22.3697 16.9943 22.73 16.9571 23.3181 16.8984L23.2188 15.9033ZM21.2637 16.3711L20.5091 15.7149C20.224 16.0427 20.0532 16.4549 20.0229 16.8882L21.0205 16.958L22.0181 17.0278L22.0182 17.0273L21.2637 16.3711ZM21.0205 16.958L20.0229 16.8884C19.9856 17.4239 20.2222 17.8654 20.4294 18.1818C20.6418 18.506 20.9526 18.8838 21.2973 19.3051L22.0713 18.6719L22.8453 18.0387C22.4711 17.5813 22.2427 17.3001 22.1025 17.0859C21.9571 16.864 22.0278 16.8879 22.0181 17.0276L21.0205 16.958ZM22.0713 18.6719L21.2973 19.3051C21.4983 19.5508 21.6061 19.6841 21.675 19.786C21.7353 19.8751 21.7104 19.8623 21.699 19.7964L22.6846 19.627L23.6701 19.4575C23.6141 19.1318 23.4721 18.8731 23.3316 18.6655C23.1998 18.4706 23.0233 18.2562 22.8453 18.0387L22.0713 18.6719ZM22.6846 19.627L21.699 19.7962L21.6992 19.7962L22.6631 20.0625L23.627 20.3288C23.7056 20.0443 23.7198 19.7468 23.6701 19.4577L22.6846 19.627ZM22.6631 20.0625L21.6993 19.7959C21.7172 19.731 21.7435 19.7205 21.6746 19.8032C21.5958 19.8978 21.4754 20.0195 21.2508 20.2442L21.958 20.9512L22.6652 21.6582C22.8636 21.4598 23.0606 21.2641 23.211 21.0836C23.3713 20.8913 23.5387 20.648 23.6269 20.3291L22.6631 20.0625ZM21.958 20.9512L21.2506 20.2444L20.2457 21.2503L20.9531 21.957L21.6606 22.6638L22.6655 21.6579L21.958 20.9512ZM20.9531 21.957L20.2459 21.25C20.0212 21.4748 19.8993 21.5954 19.8046 21.6744C19.7217 21.7434 19.7321 21.7172 19.7969 21.6993L20.0635 22.6631L20.33 23.6269C20.6491 23.5387 20.8926 23.3712 21.0851 23.2107C21.2659 23.06 21.4617 22.8628 21.6603 22.664L20.9531 21.957ZM20.0635 22.6631L19.7971 21.6992L19.7969 21.699L19.6279 22.6846L19.4589 23.6702C19.7476 23.7197 20.0451 23.7057 20.3299 23.6269L20.0635 22.6631ZM19.6279 22.6846L19.7971 21.699C19.8632 21.7103 19.876 21.7353 19.787 21.675C19.6851 21.6061 19.5519 21.4984 19.3061 21.2973L18.6729 22.0713L18.0396 22.8453C18.2571 23.0232 18.4715 23.1998 18.6664 23.3316C18.8741 23.4721 19.1328 23.6142 19.4588 23.6702L19.6279 22.6846ZM18.6729 22.0713L19.3061 21.2973C18.8847 20.9526 18.5067 20.6415 18.1824 20.429C17.8661 20.2218 17.4243 19.9847 16.8886 20.0219L16.958 21.0195L17.0274 22.0171C16.8876 22.0268 16.8638 21.9561 17.0862 22.1018C17.3006 22.2423 17.5821 22.4709 18.0396 22.8453L18.6729 22.0713ZM16.958 21.0195L16.888 20.022C16.4538 20.0525 16.0427 20.2241 15.7162 20.5079L16.3721 21.2627L17.028 22.0175L17.0281 22.0171L16.958 21.0195ZM16.3721 21.2627L15.7161 20.5079C15.3108 20.8602 15.1659 21.3397 15.0887 21.7101C15.0096 22.0896 14.9623 22.5767 14.9083 23.1185L15.9033 23.2178L16.8984 23.3171C16.9571 22.7289 16.9944 22.3686 17.0466 22.1182C17.1007 21.8586 17.1337 21.9256 17.0281 22.0174L16.3721 21.2627ZM15.9033 23.2178L14.9083 23.1185C14.8768 23.4338 14.8586 23.6044 14.8352 23.7248C14.8148 23.8303 14.8061 23.8043 14.8444 23.7502L15.6611 24.3271L16.4779 24.9041C16.6682 24.6347 16.7509 24.3518 16.7987 24.1054C16.8436 23.8739 16.8704 23.5974 16.8984 23.3171L15.9033 23.2178ZM15.6611 24.3271L14.8446 23.7498L14.8449 23.7501L15.3379 24.6201L15.8309 25.4901C16.0885 25.3441 16.3087 25.1434 16.4777 24.9045L15.6611 24.3271ZM15.3379 24.6201L14.8449 23.7501C14.9033 23.717 14.9291 23.7282 14.8222 23.7379C14.6997 23.7491 14.5285 23.75 14.2109 23.75V24.75V25.75C14.4917 25.75 14.7693 25.751 15.0035 25.7297C15.253 25.707 15.5432 25.6532 15.8309 25.4901L15.3379 24.6201ZM14.2109 24.75V23.75H12.7891V24.75V25.75H14.2109V24.75ZM12.7891 24.75V23.75C12.4717 23.75 12.3004 23.749 12.178 23.7379C12.071 23.7281 12.0965 23.7169 12.1546 23.7498L11.6621 24.6201L11.1696 25.4904C11.457 25.6531 11.7469 25.7069 11.9965 25.7296C12.2306 25.7509 12.5082 25.75 12.7891 25.75V24.75ZM11.6621 24.6201L12.1553 23.7502C12.155 23.75 12.1545 23.7497 12.1541 23.7493C12.1536 23.7489 12.1537 23.7489 12.1543 23.7497L11.3379 24.3271L10.5215 24.9046C10.6921 25.1458 10.9142 25.3456 11.169 25.4901L11.6621 24.6201ZM11.3379 24.3271L12.1547 23.7503C12.1937 23.8055 12.1851 23.8325 12.1647 23.7263C12.1414 23.605 12.1234 23.4344 12.0917 23.118L11.0967 23.2178L10.1017 23.3175C10.1296 23.5967 10.1563 23.8732 10.2006 24.1039C10.2479 24.3496 10.3301 24.6336 10.521 24.904L11.3379 24.3271ZM11.0967 23.2178L12.0917 23.118C12.0374 22.5762 11.9899 22.0892 11.9106 21.7096C11.8332 21.3393 11.688 20.8598 11.2827 20.5077L10.627 21.2627L9.97117 22.0176C9.86554 21.9259 9.89859 21.859 9.95285 22.1187C10.0052 22.3692 10.0427 22.7295 10.1017 23.3175L11.0967 23.2178ZM10.627 21.2627L11.2827 20.5077C10.9541 20.2223 10.5425 20.0532 10.1109 20.023L10.041 21.0205L9.97112 22.0181L9.97121 22.0177L10.627 21.2627ZM10.041 21.0205L10.1108 20.0229C9.57526 19.9855 9.13366 20.2221 8.81719 20.4293C8.49294 20.6417 8.11511 20.9527 7.69384 21.2974L8.32715 22.0713L8.96045 22.8452C9.41784 22.4709 9.69898 22.2426 9.91301 22.1024C10.1348 21.9571 10.1108 22.0278 9.97121 22.0181L10.041 21.0205ZM8.32715 22.0713L7.69384 21.2974C7.44824 21.4984 7.31496 21.6061 7.21314 21.675C7.12406 21.7352 7.13675 21.7104 7.20257 21.699L7.37207 22.6846L7.54157 23.6701C7.86718 23.6141 8.1258 23.4722 8.33352 23.3317C8.52849 23.1998 8.74285 23.0233 8.96045 22.8452L8.32715 22.0713ZM7.37207 22.6846L7.2029 21.699L7.20277 21.6992L6.93652 22.6631L6.67028 23.627C6.95475 23.7056 7.25224 23.7198 7.54124 23.6702L7.37207 22.6846ZM6.93652 22.6631L7.20317 21.6993C7.26821 21.7173 7.27855 21.7436 7.19543 21.6743C7.10064 21.5953 6.97863 21.4746 6.75398 21.2499L6.04688 21.957L5.33977 22.6641C5.53837 22.8627 5.73415 23.0599 5.91486 23.2106C6.10723 23.3709 6.35077 23.5386 6.66988 23.6269L6.93652 22.6631ZM6.04688 21.957L6.75398 21.2499L5.75008 20.246L5.04297 20.9531L4.33586 21.6602L5.33977 22.6641L6.04688 21.957ZM5.04297 20.9531L5.75008 20.246C5.52526 20.0212 5.40461 19.8993 5.32562 19.8045C5.25646 19.7216 5.28278 19.732 5.30076 19.797L4.33691 20.0635L3.37307 20.3299C3.46132 20.6492 3.62897 20.8927 3.78941 21.0852C3.94002 21.2658 4.13726 21.4616 4.33586 21.6602L5.04297 20.9531ZM4.33691 20.0635L5.30078 19.7971L5.30105 19.7969L4.31543 19.6279L3.32981 19.4589C3.28032 19.7476 3.29435 20.0451 3.37305 20.3299L4.33691 20.0635ZM4.31543 19.6279L5.30104 19.797C5.28969 19.8632 5.26464 19.8761 5.32489 19.7871C5.39385 19.6852 5.50157 19.552 5.70278 19.306L4.92871 18.6729L4.15464 18.0397C3.97678 18.2572 3.80015 18.4716 3.66838 18.6664C3.5279 18.874 3.38575 19.1328 3.32982 19.4589L4.31543 19.6279ZM4.92871 18.6729L5.70278 19.306C6.04759 18.8844 6.35842 18.5063 6.57078 18.1818C6.77793 17.8653 7.01435 17.4237 6.97708 16.8885L5.97949 16.958L4.98191 17.0275C4.9722 16.8881 5.04269 16.8645 4.89729 17.0867C4.7571 17.3009 4.52875 17.5823 4.15464 18.0397L4.92871 18.6729ZM5.97949 16.958L6.97704 16.888C6.94685 16.458 6.77889 16.045 6.49196 15.715L5.7373 16.3711L4.98264 17.0272C4.98058 17.0248 4.98173 17.0249 4.98195 17.028L5.97949 16.958ZM5.7373 16.3711L6.49187 15.7149C6.13922 15.3094 5.65889 15.1649 5.28897 15.0881C4.90973 15.0093 4.42269 14.9623 3.88155 14.9083L3.78223 15.9033L3.68291 16.8984C4.27117 16.9571 4.63146 16.9942 4.88231 17.0463C5.14249 17.1003 5.075 17.1334 4.98274 17.0273L5.7373 16.3711ZM3.78223 15.9033L3.88155 14.9083C3.5655 14.8767 3.39495 14.8587 3.27393 14.8355C3.16793 14.8151 3.19473 14.8064 3.24968 14.8452L2.67285 15.6621L2.09603 16.479C2.36628 16.6698 2.65 16.7521 2.89597 16.7994C3.12693 16.8439 3.40342 16.8705 3.68291 16.8984L3.78223 15.9033ZM2.67285 15.6621L3.24977 14.8453L3.24991 14.8449L2.37988 15.3379L1.50985 15.8309C1.65427 16.0858 1.85374 16.3078 2.09593 16.4789L2.67285 15.6621ZM2.37988 15.3379L3.24994 14.8449C3.283 14.9033 3.27185 14.9291 3.2621 14.8221C3.25096 14.6997 3.25 14.5285 3.25 14.2109H2.25H1.25C1.25 14.4917 1.24903 14.7694 1.27034 15.0035C1.29306 15.253 1.34685 15.5432 1.50982 15.8308L2.37988 15.3379ZM2.25 14.2109H3.25V12.7891H2.25H1.25V14.2109H2.25ZM2.25 12.7891H3.25C3.25 12.4716 3.25097 12.3003 3.26212 12.1779C3.27186 12.0709 3.28302 12.0966 3.25004 12.1549L2.37988 11.6621L1.50973 11.1693C1.34687 11.4569 1.29309 11.7469 1.27036 11.9965C1.24904 12.2306 1.25 12.5082 1.25 12.7891H2.25ZM2.37988 11.6621L3.24989 12.1552L3.25003 12.1545L2.67285 11.3379L2.09567 10.5213C1.85396 10.6921 1.65432 10.9142 1.50988 11.1691L2.37988 11.6621ZM2.67285 11.3379L3.24969 12.1547C3.19487 12.1935 3.16805 12.1849 3.27371 12.1646C3.39454 12.1413 3.56482 12.1233 3.88077 12.0917L3.78125 11.0967L3.68173 10.1016C3.40247 10.1296 3.12617 10.1562 2.89542 10.2007C2.64949 10.248 2.36608 10.3303 2.09601 10.521L2.67285 11.3379ZM3.78125 11.0967L3.88077 12.0917C4.42233 12.0375 4.90958 11.9903 5.2891 11.9113C5.65922 11.8342 6.13948 11.6895 6.492 11.284L5.7373 10.6279L4.98261 9.97185C5.07469 9.86594 5.14186 9.89907 4.88154 9.95325C4.6306 10.0055 4.27004 10.0428 3.68173 10.1016L3.78125 11.0967ZM5.7373 10.6279L6.49226 11.2837C6.77778 10.955 6.94666 10.5432 6.97702 10.1123L5.97949 10.042L4.98197 9.97171L4.98235 9.97216L5.7373 10.6279ZM5.97949 10.042L6.97703 10.1121C7.0147 9.57655 6.77826 9.13478 6.57097 8.81808C6.35857 8.49358 6.0476 8.11553 5.7027 7.69394L4.92871 8.32715L4.15473 8.96035C4.52906 9.41792 4.7574 9.69926 4.89756 9.91338C5.04281 10.1353 4.97214 10.1114 4.98196 9.97184L5.97949 10.042ZM4.92871 8.32715L5.7027 7.69394C5.50154 7.44806 5.39383 7.31485 5.32493 7.213C5.26474 7.12401 5.28968 7.13688 5.30101 7.20284L4.31543 7.37207L3.32985 7.5413C3.3858 7.86715 3.52782 8.12584 3.66833 8.33356C3.80013 8.52842 3.97675 8.7428 4.15473 8.96035L4.92871 8.32715ZM4.31543 7.37207L5.30101 7.20285L5.30081 7.20279L4.33691 6.93652L3.37301 6.67026C3.29443 6.95474 3.28022 7.25222 3.32985 7.54129L4.31543 7.37207ZM4.33691 6.93652L5.30079 7.20288C5.28302 7.26718 5.25707 7.27733 5.32579 7.19475C5.40437 7.10029 5.52479 6.97836 5.74921 6.75387L5.04199 6.04688L4.33478 5.33988C4.13592 5.5388 3.93891 5.73461 3.78834 5.91559C3.62789 6.10843 3.46104 6.35171 3.37304 6.67017L4.33691 6.93652ZM5.04199 6.04688L5.7491 6.75398L6.75398 5.7491L6.04688 5.04199L5.33977 4.33489L4.33489 5.33977L5.04199 6.04688ZM6.04688 5.04199L6.75409 5.74899C6.97872 5.52429 7.10069 5.40364 7.19538 5.32471C7.27833 5.25558 7.26803 5.28179 7.20317 5.29973L6.93652 4.33594L6.66987 3.37214C6.35088 3.4604 6.10741 3.62792 5.91489 3.78837C5.73413 3.93904 5.53834 4.13625 5.33966 4.33499L6.04688 5.04199ZM6.93652 4.33594L7.20295 5.29979L7.20309 5.30007L7.37207 4.31445L7.54105 3.32883C7.25243 3.27935 6.95492 3.29335 6.6701 3.37208L6.93652 4.33594ZM7.37207 4.31445L7.20284 5.30003C7.13678 5.28869 7.12393 5.26373 7.21304 5.324C7.31492 5.39291 7.44817 5.50065 7.69394 5.70172L8.32715 4.92773L8.96035 4.15375C8.74284 3.9758 8.52846 3.7992 8.33358 3.66738C8.12593 3.52692 7.86718 3.38483 7.5413 3.32888L7.37207 4.31445ZM8.32715 4.92773L7.69394 5.70172C8.11548 6.04658 8.49352 6.35747 8.81809 6.56988C9.13469 6.77707 9.57643 7.01355 10.1118 6.97608L10.042 5.97852L9.97218 4.98096C10.1117 4.97119 10.1354 5.04177 9.91327 4.89639C9.6991 4.75623 9.41765 4.52787 8.96035 4.15375L8.32715 4.92773ZM10.042 5.97852L10.1122 6.97605C10.5431 6.9457 10.9549 6.77699 11.2839 6.49113L10.6279 5.73633L9.97198 4.98153L9.97175 4.98099L10.042 5.97852ZM10.6279 5.73633L11.2839 6.49108C11.6893 6.13873 11.8341 5.65879 11.9112 5.28868C11.9903 4.90929 12.0375 4.42224 12.0917 3.88079L11.0967 3.78125L10.1016 3.68171C10.0428 4.26983 10.0055 4.63015 9.95326 4.88082C9.89911 5.14077 9.86605 5.07359 9.97191 4.98158L10.6279 5.73633ZM11.0967 3.78125L12.0917 3.88079C12.1233 3.56475 12.1413 3.39448 12.1646 3.27365C12.1849 3.16802 12.1934 3.19491 12.1547 3.24978L11.3379 2.67285L10.5211 2.09592C10.3303 2.36602 10.248 2.64945 10.2007 2.8954C10.1562 3.12613 10.1296 3.40245 10.1016 3.68171L11.0967 3.78125ZM11.3379 2.67285L12.1546 3.24986L12.155 3.25L11.6621 2.37988L11.1693 1.50976C10.9141 1.6543 10.6921 1.85386 10.5212 2.09584L11.3379 2.67285ZM11.6621 2.37988L12.1549 3.25C12.0967 3.28301 12.0709 3.27186 12.1779 3.26212C12.3003 3.25096 12.4715 3.25 12.7891 3.25V2.25V1.25C12.5082 1.25 12.2306 1.24904 11.9965 1.27036C11.7469 1.29309 11.4569 1.34687 11.1693 1.50976L11.6621 2.37988ZM12.7891 2.25V3.25H14.2109V2.25V1.25H12.7891V2.25ZM13.5 9V8C10.4624 8 8 10.4624 8 13.5H9H10C10 11.567 11.567 10 13.5 10V9ZM9 13.5H8C8 16.5376 10.4624 19 13.5 19V18V17C11.567 17 10 15.433 10 13.5H9ZM13.5 18V19C16.5376 19 19 16.5376 19 13.5H18H17C17 15.433 15.433 17 13.5 17V18ZM18 13.5H19C19 10.4624 16.5376 8 13.5 8V9V10C15.433 10 17 11.567 17 13.5H18Z" fill="#141414"/>
</svg>
